<svg width="338.802783203125px" height="122px" xmlns="http://www.w3.org/2000/svg"
                viewBox="30.598608398437506 14 438.802783203125 122" preserveAspectRatio="xMidYMid">
                <defs>
                    <filter id="editing-hover" x="-100%" y="-100%" width="300%" height="300%">
                        <feFlood flood-color="#052b4a" result="flood"></feFlood>
                        <feComposite operator="in" in2="SourceAlpha" in="flood" result="shadow"></feComposite>
                        <feOffset dx="-3.5" dy="-3.5" in="SourceGraphic" result="offset-1"></feOffset>
                        <feOffset dx="3.5" dy="3.5" in="shadow" result="offset-2"></feOffset>
                        <feMerge>
                            <feMergeNode in="offset-2"></feMergeNode>
                            <feMergeNode in="offset-1"></feMergeNode>
                        </feMerge>
                    </filter>
                </defs>
                <g filter="url(#editing-hover)">
                    <g transform="translate(97.57680967450142, 97.07999992370605)">
                        <path
                            d="M0.45-0.32L0.45-0.32L8.51-42.24L8.51-42.24Q16.06-42.88 20.93-42.88L20.93-42.88L20.93-42.88Q25.79-42.88 28.93-42.46L28.93-42.46L28.93-42.46Q32.06-42.05 34.18-40.96L34.18-40.96L34.18-40.96Q38.40-38.91 38.40-33.28L38.40-33.28L38.40-33.28Q38.40-30.02 35.58-27.26L35.58-27.26L35.58-27.26Q32.96-24.77 30.08-24.19L30.08-24.19L30.08-24.19Q33.15-23.68 35.33-21.38L35.33-21.38L35.33-21.38Q37.63-18.94 37.63-15.17L37.63-15.17L37.63-15.17Q37.63-7.87 32.19-3.62L32.19-3.62L32.19-3.62Q26.75 0.64 16.06 0.64L16.06 0.64L16.06 0.64Q8.70 0.64 0.45-0.32ZM17.86-20.61L14.66-4.03L14.66-4.03Q15.23-3.97 15.36-3.97L15.36-3.97L15.94-3.97L15.94-3.97Q21.18-3.97 23.42-7.42L23.42-7.42L23.42-7.42Q25.09-10.11 25.09-15.04L25.09-15.04L25.09-15.04Q25.09-17.66 23.39-19.07L23.39-19.07L23.39-19.07Q21.70-20.48 17.86-20.61L17.86-20.61ZM27.58-33.22L27.58-33.22L27.58-33.22Q27.58-38.53 22.46-38.53L22.46-38.53L21.89-38.53L21.89-38.53Q21.63-38.53 21.25-38.46L21.25-38.46L18.69-24.96L19.33-24.96L19.33-24.96Q27.58-25.15 27.58-33.22ZM67.78-10.82L67.78-10.82L67.78-10.82Q69.38-9.73 69.38-7.33L69.38-7.33L69.38-7.33Q69.38-4.93 68.16-3.39L68.16-3.39L68.16-3.39Q66.94-1.86 64.96-0.83L64.96-0.83L64.96-0.83Q60.86 1.28 56.45 1.28L56.45 1.28L56.45 1.28Q52.03 1.28 49.44 0.32L49.44 0.32L49.44 0.32Q46.85-0.64 45.12-2.43L45.12-2.43L45.12-2.43Q41.73-5.82 41.73-12.03L41.73-12.03L41.73-12.03Q41.73-21.70 46.98-27.58L46.98-27.58L46.98-27.58Q52.61-33.92 62.40-33.92L62.40-33.92L62.40-33.92Q68.48-33.92 71.49-31.36L71.49-31.36L71.49-31.36Q73.73-29.44 73.73-26.30L73.73-26.30L73.73-26.30Q73.73-15.04 54.27-15.04L54.27-15.04L54.27-15.04Q54.02-13.38 54.02-11.97L54.02-11.97L54.02-11.97Q54.02-9.02 55.33-7.90L55.33-7.90L55.33-7.90Q56.64-6.78 59.07-6.78L59.07-6.78L59.07-6.78Q61.50-6.78 64.10-7.90L64.10-7.90L64.10-7.90Q66.69-9.02 67.78-10.82ZM54.72-17.79L54.72-17.79L54.72-17.79Q59.26-17.79 61.89-20.61L61.89-20.61L61.89-20.61Q64.51-23.30 64.51-27.58L64.51-27.58L64.51-27.58Q64.51-29.06 63.97-29.86L63.97-29.86L63.97-29.86Q63.42-30.66 62.34-30.66L62.34-30.66L62.34-30.66Q61.25-30.66 60.32-30.24L60.32-30.24L60.32-30.24Q59.39-29.82 58.43-28.42L58.43-28.42L58.43-28.42Q56.06-25.22 54.72-17.79ZM74.75-3.78L74.75-3.78L74.75-3.78Q74.75-6.21 76.64-7.55L76.64-7.55L76.64-7.55Q78.53-8.90 81.22-8.90L81.22-8.90L81.22-8.90Q83.90-8.90 85.54-7.55L85.54-7.55L85.54-7.55Q87.17-6.21 87.17-3.78L87.17-3.78L87.17-3.78Q87.17-1.34 85.34-0.03L85.34-0.03L85.34-0.03Q83.52 1.28 80.83 1.28L80.83 1.28L80.83 1.28Q78.14 1.28 76.45-0.03L76.45-0.03L76.45-0.03Q74.75-1.34 74.75-3.78ZM80-28.80L80-28.80L80-28.80Q80-31.23 81.89-32.58L81.89-32.58L81.89-32.58Q83.78-33.92 86.46-33.92L86.46-33.92L86.46-33.92Q89.15-33.92 90.78-32.58L90.78-32.58L90.78-32.58Q92.42-31.23 92.42-28.80L92.42-28.80L92.42-28.80Q92.42-26.37 90.59-25.06L90.59-25.06L90.59-25.06Q88.77-23.74 86.08-23.74L86.08-23.74L86.08-23.74Q83.39-23.74 81.70-25.06L81.70-25.06L81.70-25.06Q80-26.37 80-28.80ZM118.98-4.80L118.98-4.80L118.98-4.80Q118.98-9.28 120.77-18.24L120.77-18.24L111.30-18.24L107.78 0L94.40 0L102.53-42.24L116.03-42.24L112.32-23.36L121.79-23.36L125.31-42.24L138.82-42.24L138.82-42.24Q137.92-37.50 136.77-32.19L136.77-32.19L134.59-21.76L134.59-21.76Q132.16-9.60 132.16-4.29L132.16-4.29L132.16-4.29Q132.16-2.11 132.86-0.90L132.86-0.90L132.86-0.90Q129.66 1.28 125.92 1.28L125.92 1.28L125.92 1.28Q122.18 1.28 120.58-0.51L120.58-0.51L120.58-0.51Q118.98-2.30 118.98-4.80ZM154.30 1.28L154.30 1.28L154.30 1.28Q140.22 1.28 140.22-11.97L140.22-11.97L140.22-11.97Q140.22-21.38 145.41-27.46L145.41-27.46L145.41-27.46Q150.91-33.92 160.45-33.92L160.45-33.92L160.45-33.92Q167.36-33.92 170.88-30.72L170.88-30.72L170.88-30.72Q174.40-27.52 174.40-20.80L174.40-20.80L174.40-20.80Q174.40-10.56 168.90-4.61L168.90-4.61L168.90-4.61Q163.52 1.28 154.30 1.28ZM155.97-26.56L155.97-26.56L155.97-26.56Q155.20-24.83 154.59-22.24L154.59-22.24L154.59-22.24Q153.98-19.65 153.22-15.55L153.22-15.55L153.22-15.55Q152.45-11.46 152.45-6.40L152.45-6.40L152.45-6.40Q152.45-4.74 152.99-3.65L152.99-3.65L152.99-3.65Q153.54-2.56 155.01-2.56L155.01-2.56L155.01-2.56Q156.48-2.56 157.41-3.26L157.41-3.26L157.41-3.26Q158.34-3.97 159.04-5.63L159.04-5.63L159.04-5.63Q160.32-8.58 161.34-14.05L161.34-14.05L161.34-14.05Q162.37-19.52 162.46-21.89L162.46-21.89L162.46-21.89Q162.56-24.26 162.56-26.02L162.56-26.02L162.56-26.02Q162.56-27.78 162.05-28.93L162.05-28.93L162.05-28.93Q161.54-30.08 160.10-30.08L160.10-30.08L160.10-30.08Q158.66-30.08 157.70-29.18L157.70-29.18L157.70-29.18Q156.74-28.29 155.97-26.56ZM205.25 1.28L205.25 1.28L205.25 1.28Q197.50 1.28 197.50-4.74L197.50-4.74L197.50-4.74Q197.57-6.40 198.08-9.22L198.08-9.22L199.23-15.10L199.23-15.10Q200.96-23.42 200.96-25.28L200.96-25.28L200.96-25.28Q200.96-28.99 198.78-28.99L198.78-28.99L198.78-28.99Q195.14-28.99 193.22-19.46L193.22-19.46L189.44 0L176.58 1.28L183.23-32.70L193.73-33.92L192.70-27.65L192.70-27.65Q195.71-33.92 204.93-33.92L204.93-33.92L204.93-33.92Q209.41-33.92 211.30-32.03L211.30-32.03L211.30-32.03Q213.18-30.14 213.18-25.92L213.18-25.92L213.18-25.92Q213.18-21.95 211.14-12.67L211.14-12.67L211.14-12.67Q210.18-8.51 210.18-6.94L210.18-6.94L210.18-6.94Q210.18-5.38 211.04-4.48L211.04-4.48L211.04-4.48Q211.90-3.58 213.18-3.46L213.18-3.46L213.18-3.46Q212.54-1.28 210.34 0L210.34 0L210.34 0Q208.13 1.28 205.25 1.28ZM244.22-10.82L244.22-10.82L244.22-10.82Q245.82-9.73 245.82-7.33L245.82-7.33L245.82-7.33Q245.82-4.93 244.61-3.39L244.61-3.39L244.61-3.39Q243.39-1.86 241.41-0.83L241.41-0.83L241.41-0.83Q237.31 1.28 232.90 1.28L232.90 1.28L232.90 1.28Q228.48 1.28 225.89 0.32L225.89 0.32L225.89 0.32Q223.30-0.64 221.57-2.43L221.57-2.43L221.57-2.43Q218.18-5.82 218.18-12.03L218.18-12.03L218.18-12.03Q218.18-21.70 223.42-27.58L223.42-27.58L223.42-27.58Q229.06-33.92 238.85-33.92L238.85-33.92L238.85-33.92Q244.93-33.92 247.94-31.36L247.94-31.36L247.94-31.36Q250.18-29.44 250.18-26.30L250.18-26.30L250.18-26.30Q250.18-15.04 230.72-15.04L230.72-15.04L230.72-15.04Q230.46-13.38 230.46-11.97L230.46-11.97L230.46-11.97Q230.46-9.02 231.78-7.90L231.78-7.90L231.78-7.90Q233.09-6.78 235.52-6.78L235.52-6.78L235.52-6.78Q237.95-6.78 240.54-7.90L240.54-7.90L240.54-7.90Q243.14-9.02 244.22-10.82ZM231.17-17.79L231.17-17.79L231.17-17.79Q235.71-17.79 238.34-20.61L238.34-20.61L238.34-20.61Q240.96-23.30 240.96-27.58L240.96-27.58L240.96-27.58Q240.96-29.06 240.42-29.86L240.42-29.86L240.42-29.86Q239.87-30.66 238.78-30.66L238.78-30.66L238.78-30.66Q237.70-30.66 236.77-30.24L236.77-30.24L236.77-30.24Q235.84-29.82 234.88-28.42L234.88-28.42L234.88-28.42Q232.51-25.22 231.17-17.79ZM271.49-22.46L271.49-22.46L271.49-22.46Q272.38-24.83 272.38-26.88L272.38-26.88L272.38-26.88Q272.38-30.66 269.31-30.66L269.31-30.66L269.31-30.66Q267.71-30.66 266.40-29.22L266.40-29.22L266.40-29.22Q265.09-27.78 265.09-25.98L265.09-25.98L265.09-25.98Q265.09-24.70 266.11-23.68L266.11-23.68L266.11-23.68Q267.58-22.27 271.36-19.97L271.36-19.97L271.36-19.97Q275.14-17.66 276.58-15.78L276.58-15.78L276.58-15.78Q278.02-13.89 278.02-11.30L278.02-11.30L278.02-11.30Q278.02-8.70 276.77-6.34L276.77-6.34L276.77-6.34Q275.52-3.97 273.28-2.30L273.28-2.30L273.28-2.30Q268.48 1.28 260.80 1.28L260.80 1.28L260.80 1.28Q256.64 1.28 253.44-0.90L253.44-0.90L253.44-0.90Q250.24-3.01 250.24-5.50L250.24-5.50L250.24-5.50Q250.24-8 252.06-9.47L252.06-9.47L252.06-9.47Q253.89-10.94 256.58-10.94L256.58-10.94L256.58-10.94Q259.26-10.94 260.93-9.92L260.93-9.92L260.93-9.92Q260.10-7.81 260.10-6.40L260.10-6.40L260.10-6.40Q260.10-2.18 263.68-2.18L263.68-2.18L263.68-2.18Q265.22-2.18 266.24-3.14L266.24-3.14L266.24-3.14Q267.26-4.10 267.26-5.76L267.26-5.76L267.26-5.76Q267.26-9.02 261.76-12.48L261.76-12.48L261.76-12.48Q257.28-15.42 256.26-16.58L256.26-16.58L256.26-16.58Q254.53-18.62 254.53-21.18L254.53-21.18L254.53-21.18Q254.53-23.74 255.74-26.18L255.74-26.18L255.74-26.18Q256.96-28.61 259.20-30.34L259.20-30.34L259.20-30.34Q263.87-33.92 272-33.92L272-33.92L272-33.92Q276.16-33.92 278.62-32.26L278.62-32.26L278.62-32.26Q281.09-30.59 281.09-27.78L281.09-27.78L281.09-27.78Q281.09-24.96 279.39-23.36L279.39-23.36L279.39-23.36Q277.70-21.76 274.62-21.76L274.62-21.76L274.62-21.76Q272.51-21.76 271.49-22.46ZM284.48-6.40L284.48-6.40L284.48-6.40Q284.48-8.13 285.38-12.48L285.38-12.48L288.77-29.76L284.99-29.76L285.25-31.68L285.25-31.68Q292.93-33.98 300.35-39.62L300.35-39.62L303.42-39.62L301.89-32.64L306.88-32.64L306.30-29.76L301.38-29.76L298.11-12.48L298.11-12.48Q297.28-8.51 297.28-7.17L297.28-7.17L297.28-7.17Q297.28-4.10 299.97-3.46L299.97-3.46L299.97-3.46Q299.33-1.28 297.02 0L297.02 0L297.02 0Q294.72 1.28 291.46 1.28L291.46 1.28L291.46 1.28Q288.19 1.28 286.34-0.77L286.34-0.77L286.34-0.77Q284.48-2.82 284.48-6.40Z"
                            fill="#ffd5af"></path>
                    </g>
                </g>
            </svg>