<?xml version="1.0" encoding="utf-8"?>
<!-- Generator: Adobe Illustrator 26.3.1, SVG Export Plug-In . SVG Version: 6.00 Build 0)  -->
<svg version="1.1" id="Laag_1" xmlns="http://www.w3.org/2000/svg" xmlns:xlink="http://www.w3.org/1999/xlink" x="0px" y="0px"
	 viewBox="0 0 186.3 72.1" style="enable-background:new 0 0 186.3 72.1;" xml:space="preserve">
<style type="text/css">
	.st0{fill:#FFFFFF;}
</style>
<g>
	<path class="st0" d="M26.5,42.7c1.9-2.1,1.9-3.3,1.2-5.6c-2.5-7.8-6.9-14.5-9.9-22.3C17.4,14,18,12.3,19.5,12
		c1-0.2,2.2,1.4,3.4,0.7c3.1-1.9,8.7-6.7,10.5-9.3c0.2-0.3,0.6-1,0.6-1.2c-0.3-0.8-1.5-1.6-2.4-2c-1.2-0.6-9.1,0.8-14.9,5.4
		c-3.5,2.8-8.5,7.4-7.3,12.7c1.8,8.1,10,22.2,10,22.2c0.7,1.5-0.2,1.9-1.2,2c-0.4,0-1-1.3-1.5-1.4c-1.7-0.5-11.4,4.2-16.5,8.3
		c-1.5,1.2,2.5,6.3,4.4,5.9C13.2,53.7,23.5,46.1,26.5,42.7"/>
	<path class="st0" d="M183.8,38c-0.2,0-4.2,5.1-6.7,6.5c0.3-0.5,0.4-0.7,1-1.8c1.8-3.4,2.2-6.8,1-10c-0.6-1.6-3.1-4.7-5.1-5.8
		c-1,1.4-4.7,5.8-4.5,5.7c0,0,0.6,1.2,0.5,1.3c-1.7,2.7-4.3,6-7.3,8.6c-2,1.8-6.9,5.4-8.8,2.1c-0.6-1.1-1.4-4.4-0.5-5.7
		c1.1-1.6,1.8-2.6,3.3-4.8c4.5-6.5,10.5-16.1,8.8-23.9c-0.5-2.5-4.2-2.8-6-1.4c-6,4.2-11.8,15.6-12.4,25.1c-0.1,2-0.3,2.9-0.3,4.5
		c-2.3,2.5-6.5,6-8,5.9c-1.3-0.1-1.9-1.6-2-2.8c-0.1-1.1,0.5-3.4,0.4-3.4c-1.6,0-4.1,0-5.9,0c-1.7,4.1-3.1,1.8-8.1,5.7
		c4.5-5.4,7.1-7.5,12.7-10.5c1.4-0.8,2.4-0.9,2.3-1.1c-1.2-1.9-2.9-5.1-4.6-4.6c-2.7,0.7-5.9,2.5-8.9,5c-3.6,3-5.8,6.4-8.2,8.9
		c-1.5,1.6-4.2,3.4-6.3,2.1c-1.9-1.1-2.3-4.1-1.8-7.2c0.2-1.2,1.3-3.3,2.5-5.4c3.7-6.6,6.4-13.7,6.9-21.1c0.1-1.1-2.5-2.4-3.7-1.5
		c-4.6,3.4-9.6,12.9-10.7,19.4c-2.2,0.9-5.1,2.6-7,4.1c-3.8,2.9-7.3,6.4-9.1,9.3c-1.1,1.9-1.8,2.6-2.7,0.8
		c-2.7-5.3-2.7-12.2-3.5-12.5c0,0-1-0.4-1.5-0.3c-1.2,0.3-3.8,6.3-10.9,12.6c0.6-2.3,1.9-7.3,2.3-10.9c0-0.1,0-0.2,0-0.3
		c-0.8-0.7-4.8-3-5.3-2.3c-0.3,0.5-1,2.2-1.9,3.9c-1.9,3.7-4,6.6-5.4,8.2c-2.5,2.5-4.3,3.9-5.8,3.8c-1.3-0.1-1.9-1.6-2-2.8
		c-0.1-1.1,0.5-3.4,0.4-3.4c-1.6,0-4.1,0-5.9,0c-1.7,4.1-3.1,1.8-8.1,5.7c4.5-5.4,7.1-7.5,12.7-10.5c1.4-0.8,2.4-0.9,2.3-1.1
		c-1.2-1.9-2.9-5.1-4.6-4.6c-2.7,0.7-5.9,2.5-8.9,5c-4.2,3.5-6.5,7.4-9.4,10c-1.8,1.6-6.1,5.8-5.8,5.9c2.4,2.4,0.2,1.7,5.5-1.4
		c0.1-0.1-0.3,3.2-0.2,3.3c1.1,0.5,3.8,2.7,4.1,2.4c0,0,6.6-7.4,11.1-8.3c3.6-0.7,0.3,6,5.5,7.1c3.5,0.7,9.7-7.1,10.8-8.3
		c0.6-0.6,1.1-1.3,1.6-1.9c-0.1,1.3-1.3,6.8-1.8,8.2c-0.4,1.1,3.7,3.6,4.6,3.1c4-2.2,10.4-10,13.2-14.1c0.6,1.8,1.2,3.3,1.8,5
		c1.8,4.6,3.7,4.4,6.4,3.6c0.3,3.5,5.2,6,6,5.7c2-0.8,8-4.9,10.7-8.3c0.9,2.2,1.8,4.1,3.9,5.4c1.5,0.9,3.4,1,8.5-2.9
		c0.1-0.1-0.3,3.3-0.2,3.4c1,0.5,4.2,2.4,4.2,2.4s6.5-7.3,11-8.2c3.6-0.7,0.3,6,5.6,7.1c3.2,0.7,9.2-5.6,11.1-7.6
		c1-0.7,0.3,2.1,1.9,4.5c1.2,1.9,4,4.5,9.3,2.8c1.1-0.4,3.7-1.3,8.7-6.5c2.2-2.3,4.4-5.4,5.9-7.4c0,0,0.6-0.7,0.7,0.4
		c0.2,1.4,0.1,2.2-0.8,4.5c-1,2.3-3.8,5.7-5.5,7.1c-0.6,0.5,1.5,3.1,1.9,3.1c7.3-0.9,13-6.7,17.5-13.3
		C186.3,39.5,184.5,38.2,183.8,38 M160.3,15.5c0.3,4.5-3.6,12-6.6,15.5C153.4,26.6,156.9,18.6,160.3,15.5z M101.5,40
		c-1,1.2-4.2,3.8-7,5.6c-0.6,0.4-1.2-0.6-1.2-0.9c0.7-4.9,4.3-7.9,8.6-10.8C101.3,37.7,101.7,38.9,101.5,40z"/>
	<path class="st0" d="M185.7,52.1c-0.4,0.4-0.9,0.6-1.4,0.6c-0.6,0-1-0.2-1.4-0.6c-0.4-0.4-0.6-0.9-0.6-1.4c0-0.6,0.2-1,0.6-1.4
		c0.4-0.4,0.9-0.6,1.4-0.6c0.6,0,1,0.2,1.4,0.6c0.4,0.4,0.6,0.9,0.6,1.4C186.3,51.2,186.1,51.7,185.7,52.1 M183,49.4
		c-0.3,0.3-0.5,0.8-0.5,1.2c0,0.5,0.2,0.9,0.5,1.2c0.3,0.3,0.8,0.5,1.2,0.5c0.5,0,0.9-0.2,1.2-0.5c0.3-0.3,0.5-0.8,0.5-1.2
		c0-0.5-0.2-0.9-0.5-1.2c-0.3-0.3-0.8-0.5-1.2-0.5C183.7,48.9,183.3,49.1,183,49.4z M184.2,49.5c0.3,0,0.5,0,0.6,0.1
		c0.2,0.1,0.3,0.3,0.3,0.6c0,0.2-0.1,0.3-0.2,0.4c-0.1,0-0.2,0.1-0.3,0.1c0.2,0,0.3,0.1,0.4,0.2c0.1,0.1,0.1,0.2,0.1,0.3v0.2
		c0,0.1,0,0.1,0,0.2c0,0.1,0,0.1,0,0.1l0,0h-0.4c0,0,0,0,0,0c0,0,0,0,0,0l0-0.1v-0.2c0-0.3-0.1-0.4-0.2-0.5c-0.1,0-0.2-0.1-0.4-0.1
		h-0.3v0.9h-0.4v-2.2H184.2z M184.6,49.9c-0.1-0.1-0.3-0.1-0.5-0.1h-0.3v0.8h0.4c0.2,0,0.3,0,0.4,0c0.2-0.1,0.2-0.2,0.2-0.3
		C184.8,50.1,184.7,50,184.6,49.9z"/>
	<path class="st0" d="M51.9,62.2h4.3c1.2,0,2.2,0.4,2.8,1c0.5,0.5,0.8,1.3,0.8,2.1v0c0,1.6-1,2.6-2.3,3l2.6,3.7h-2l-2.4-3.4h-2.1V72
		h-1.7V62.2 M56.1,67.1c1.2,0,2-0.6,2-1.6v0c0-1-0.8-1.6-2-1.6h-2.5v3.3H56.1z"/>
	<polyline class="st0" points="64.7,62.2 71.9,62.2 71.9,63.8 66.4,63.8 66.4,66.3 71.3,66.3 71.3,67.8 66.4,67.8 66.4,70.4 
		72,70.4 72,72 64.7,72 64.7,62.2 	"/>
	<path class="st0" d="M76.2,70.6l1-1.2c0.9,0.8,1.9,1.3,3.1,1.3c1.1,0,1.7-0.5,1.7-1.2v0c0-0.7-0.4-1.1-2.2-1.5
		c-2.1-0.5-3.2-1.1-3.2-2.9v0c0-1.7,1.4-2.8,3.3-2.8c1.4,0,2.5,0.4,3.5,1.2l-0.9,1.3c-0.9-0.7-1.8-1-2.6-1c-1,0-1.6,0.5-1.6,1.2v0
		c0,0.8,0.4,1.1,2.3,1.5c2.1,0.5,3.1,1.2,3.1,2.9v0c0,1.8-1.4,2.9-3.5,2.9C78.7,72.1,77.3,71.6,76.2,70.6"/>
	<path class="st0" d="M88.1,67.1L88.1,67.1c0-2.8,2.1-5.1,5.1-5.1c3,0,5.1,2.3,5.1,5v0c0,2.7-2.1,5-5.1,5S88.1,69.9,88.1,67.1
		 M96.5,67.1L96.5,67.1c0-1.9-1.4-3.5-3.3-3.5c-1.9,0-3.3,1.5-3.3,3.4v0c0,1.9,1.4,3.5,3.3,3.5C95.1,70.6,96.5,69,96.5,67.1z"/>
	<path class="st0" d="M103.1,62.2h4.3c1.2,0,2.2,0.4,2.8,1c0.5,0.5,0.8,1.3,0.8,2.1v0c0,1.6-1,2.6-2.3,3l2.6,3.7h-2l-2.4-3.4h-2.1
		V72h-1.7V62.2 M107.3,67.1c1.2,0,2-0.6,2-1.6v0c0-1-0.8-1.6-2-1.6h-2.5v3.3H107.3z"/>
	<polyline class="st0" points="118.3,63.8 115.2,63.8 115.2,62.2 123.1,62.2 123.1,63.8 120,63.8 120,72 118.3,72 118.3,63.8 	"/>
	<path class="st0" d="M126.8,70.6l1-1.2c0.9,0.8,1.9,1.3,3.1,1.3c1.1,0,1.7-0.5,1.7-1.2v0c0-0.7-0.4-1.1-2.2-1.5
		c-2.1-0.5-3.2-1.1-3.2-2.9v0c0-1.7,1.4-2.8,3.3-2.8c1.4,0,2.5,0.4,3.5,1.2l-0.9,1.3c-0.9-0.7-1.8-1-2.6-1c-1,0-1.6,0.5-1.6,1.2v0
		c0,0.8,0.4,1.1,2.3,1.5c2.1,0.5,3.1,1.2,3.1,2.9v0c0,1.8-1.4,2.9-3.5,2.9C129.4,72.1,128,71.6,126.8,70.6"/>
</g>
</svg>
